<svg fill="none" viewBox="0 0 35 27" xmlns="http://www.w3.org/2000/svg"><rect x=".5" y=".5" width="34" height="26" rx="1.5" stroke="#000" stroke-opacity=".26"/><path d="M11.864 6.7777a1.294 1.294 0 0 0-1.294 1.294v9.0581a1.294 1.294 0 0 0 1.294 1.294h5.8813c-.03882-.21351-.05823-.42702-.05823-.64701 0-.43996.07764-.87993.22645-1.294h-6.0495l2.2645-2.9115 1.6175 1.941 2.2645-2.9115 1.4428 1.9216c.6276-.40761 1.3652-.6276 2.1157-.6276.21998 0 .43349.01941.647.05823v-5.8813c0-.71818-.5823-1.294-1.294-1.294h-9.0581m9.0581 8.4111v1.941h-1.941v1.294h1.941v1.941h1.294v-1.941h1.941v-1.294h-1.941v-1.941z" fill="#000"/></svg>